<?xml version="1.0" encoding="UTF-8" standalone="no"?>
<!-- Created with Inkscape (http://www.inkscape.org/) -->

<svg
   xmlns:dc="http://purl.org/dc/elements/1.1/"
   xmlns:cc="http://creativecommons.org/ns#"
   xmlns:rdf="http://www.w3.org/1999/02/22-rdf-syntax-ns#"
   xmlns:svg="http://www.w3.org/2000/svg"
   xmlns="http://www.w3.org/2000/svg"
   xmlns:sodipodi="http://sodipodi.sourceforge.net/DTD/sodipodi-0.dtd"
   xmlns:inkscape="http://www.inkscape.org/namespaces/inkscape"
   width="1024"
   height="1024"
   viewBox="0 0 1024 1024"
   id="svg2"
   version="1.1"
   inkscape:version="0.91 r13725"
   sodipodi:docname="Ancient_Glacier.svg"
   inkscape:export-filename="D:\GitHub Repos\Mars-Game\Mars Game\Assets\Images\Ancient_Glacier.png"
   inkscape:export-xdpi="11.25"
   inkscape:export-ydpi="11.25">
  <defs
     id="defs4" />
  <sodipodi:namedview
     id="base"
     pagecolor="#ffffff"
     bordercolor="#666666"
     borderopacity="1.0"
     inkscape:pageopacity="0.0"
     inkscape:pageshadow="2"
     inkscape:zoom="0.49497475"
     inkscape:cx="135.80617"
     inkscape:cy="337.10545"
     inkscape:document-units="px"
     inkscape:current-layer="layer1"
     showgrid="false"
     inkscape:window-width="1920"
     inkscape:window-height="1017"
     inkscape:window-x="1912"
     inkscape:window-y="-8"
     inkscape:window-maximized="1"
     units="px"
     showguides="true"
     inkscape:guide-bbox="true" />
  <metadata
     id="metadata7">
    <rdf:RDF>
      <cc:Work
         rdf:about="">
        <dc:format>image/svg+xml</dc:format>
        <dc:type
           rdf:resource="http://purl.org/dc/dcmitype/StillImage" />
        <dc:title></dc:title>
      </cc:Work>
    </rdf:RDF>
  </metadata>
  <g
     inkscape:label="Layer 1"
     inkscape:groupmode="layer"
     id="layer1"
     transform="translate(0,-28.36216)">
    <rect
       style="opacity:1;fill:#e78649;fill-opacity:1;stroke:none;stroke-width:8;stroke-linecap:round;stroke-linejoin:miter;stroke-miterlimit:4;stroke-dasharray:none;stroke-opacity:1"
       id="rect4136"
       width="1024"
       height="1024"
       x="0"
       y="28.36216" />
    <path
       style="fill:none;fill-rule:evenodd;stroke:#6e3d1e;stroke-width:8;stroke-linecap:round;stroke-linejoin:miter;stroke-miterlimit:4;stroke-dasharray:none;stroke-opacity:1"
       d="m 690.94434,-34.561978 c 0,0 -20.12388,28.1726118 -20.20305,44.446712 -0.2508,51.555669 35.17091,97.785616 62.62946,141.421356 35.36284,56.19685 121.48208,85.58727 129.29952,151.52288 5.24803,44.26405 -50.84174,75.70725 -60.60915,119.198 -5.167,23.00677 -8.02893,49.37944 2.02031,70.71068 9.15268,19.42815 32.80445,27.75425 48.48732,42.42641 23.64607,22.12215 57.18281,38.42319 68.69037,68.69037 4.07557,10.71956 -4.90185,23.24492 -2.0203,34.34519 2.20623,8.49882 13.38821,13.47526 14.14213,22.22335 1.5034,17.44465 -19.93331,30.98009 -20.20305,48.48732 -0.23314,15.13178 10.48681,28.39743 16.16244,42.42641 1.92346,4.75439 6.70797,9.05439 6.06092,14.14214 -2.36217,18.57383 -22.89679,29.63114 -34.34519,44.44671 -11.4484,14.81557 -30.88418,26.04594 -34.34519,44.44671 -2.20586,11.72765 10.13378,22.41193 10.10153,34.34519 -0.038,14.06168 -10.92218,26.39563 -12.12183,40.4061 -1.90981,22.3044 -0.58852,46.03104 8.08122,66.67007 1.67,3.97556 8.60808,5.82168 8.08122,10.10148 -2.17229,17.646 -26.70932,24.0139 -42.42641,32.325 -1.88259,0.9955 -4.31055,0.8073 -6.06091,2.0203 -14.95511,10.3639 -34.34519,42.4264 -34.34519,42.4264"
       id="path5323"
       inkscape:connector-curvature="0"
       sodipodi:nodetypes="cssssssssssssssssssssc" />
    <path
       style="fill:none;fill-rule:evenodd;stroke:#6e3d1e;stroke-width:8;stroke-linecap:round;stroke-linejoin:miter;stroke-miterlimit:4;stroke-dasharray:none;stroke-opacity:1"
       d="m 462.64987,1100.8495 c 0,0 -22.02212,-40.8992 -38.3858,-50.5076 -19.7532,-11.5986 -37.50346,-1.595 -57.57869,-12.6269 -25.40573,-13.9611 -24.86474,-37.84541 -43.43657,-60.10413 -17.73618,-21.25718 -61.04841,-26.90877 -62.62945,-54.54824 -1.1978,-20.93978 33.39469,-27.53721 42.4264,-46.46701 9.67891,-20.2863 9.46221,-44.20217 10.10153,-66.67007 0.61564,-21.63566 -9.01369,-43.2077 -6.06092,-64.64976 2.55923,-18.58434 10.86613,-36.25682 20.20305,-52.52794 8.58469,-14.96024 18.00856,-30.78589 32.32489,-40.4061 25.64518,-17.23291 58.11609,-28.98506 88.89342,-26.26396 14.99995,1.32618 25.5112,17.98959 40.4061,20.20305 31.75793,4.71939 65.1178,-4.30413 94.95434,-16.16244 29.3335,-11.65838 51.2262,-37.14925 78.7919,-52.52794 15.52638,-8.66205 38.88536,-7.25999 48.48732,-22.22335 9.81991,-15.303 8.42711,-38.43625 0,-54.54824 -13.67976,-26.15465 -53.01289,-28.54405 -72.73098,-50.50763 -5.63704,-6.27898 -11.1346,-13.84318 -12.12183,-22.22335 -4.81647,-40.88504 48.21165,-81.21912 32.32488,-119.198 -11.63673,-27.81876 -49.70119,-36.50772 -78.7919,-44.44671 -33.78942,-9.22129 -72.21243,-14.18856 -105.05586,-2.02031 -23.70394,8.78213 -31.46639,47.52705 -56.56855,50.50763 -31.11606,3.69465 -57.27935,-26.31124 -82.83251,-44.44671 -35.76009,-25.37948 -99.64127,-45.12367 -96.97464,-88.89343 2.46601,-40.4767 67.11674,-45.64628 98.99495,-70.71068 30.77785,-24.199245 73.75495,-40.664716 88.89342,-76.77159 8.08886,-19.292798 -4.04061,-62.629458 -4.04061,-62.629458"
       id="path5325"
       inkscape:connector-curvature="0"
       sodipodi:nodetypes="csssssssssssssssssssssssssc" />
    <path
       style="fill:none;fill-rule:evenodd;stroke:#6e3d1e;stroke-width:8;stroke-linecap:round;stroke-linejoin:miter;stroke-miterlimit:4;stroke-dasharray:none;stroke-opacity:1"
       d="m -11.111678,1037.2099 c 0,0 66.927531,-39.56821 63.63961,-91.92391 -0.996153,-15.86239 -24.834183,-22.87114 -28.284271,-38.3858 -0.745399,-3.35198 2.175908,-6.67119 2.020305,-10.10152 -0.859346,-18.94462 45.358117,-53.07481 38.385796,-70.71068 L 30.304576,739.21487 c -3.875465,-9.80265 26.290902,-3.7914 28.284272,-14.14213 3.067036,-15.92583 -23.662619,-22.65405 -32.324882,-36.3655 -10.154218,-16.07305 -11.027672,-27.52449 -15.080499,-46.09936 -4.8830993,-22.38017 -8.3907499,-46.62505 1.551124,-67.2618 4.384225,-9.10052 5.427012,-20.00727 13.529375,-26.03989 15.448881,-11.50248 29.838657,-24.62547 46.467017,-34.34518 18.477086,-10.80033 39.168777,-17.26893 58.588847,-26.26397 15.57926,-7.21604 36.44888,-8.27985 46.46702,-22.22336 16.23004,-22.58941 17.70005,-56.0751 10.10152,-82.8325 -5.88982,-20.74036 -26.81834,-33.76769 -40.4061,-50.50763 -9.34666,-11.51497 -16.94586,-24.78511 -28.28427,-34.34519 -12.45257,-10.4995 -28.499948,-15.79618 -42.426407,-24.24366 -9.583027,-5.81285 -22.405191,-8.64021 -28.284271,-18.18275 -6.748633,-10.95394 -3.366248,-25.53752 -4.04061,-38.38579 -0.600061,-11.43266 -2.999633,-23.29675 0,-34.34519 5.931416,-21.84697 23.682476,-38.61942 34.345186,-58.58885 10.923723,-20.45827 21.792922,-41.055855 30.304572,-62.629454 7.50476,-19.021544 15.11766,-38.371384 18.18275,-58.588848 1.81698,-11.9848804 0,-36.365491 0,-36.365491"
       id="path5327"
       inkscape:connector-curvature="0"
       sodipodi:nodetypes="csssssssssssssssssssssssc" />
    <path
       style="fill:none;fill-rule:evenodd;stroke:#6e3d1e;stroke-width:8;stroke-linecap:round;stroke-linejoin:miter;stroke-miterlimit:4;stroke-dasharray:none;stroke-opacity:1"
       d="m 676.80221,1096.8089 c 0,0 -1.39026,-57.2396 -8.08123,-84.8528 -4.2702,-17.62283 -4.97057,-40.67048 -20.20305,-50.50767 -13.02384,-8.41084 -32.55482,8.86237 -46.46701,2.02031 -19.95128,-9.81211 -38.46409,-32.31482 -38.3858,-54.54824 0.0612,-17.37922 24.41422,-26.07574 30.30458,-42.42641 3.2036,-8.89266 8.32731,-21.2441 2.0203,-28.28427 -11.69189,-13.05102 -39.61718,9.82631 -52.52793,-2.0203 -12.00149,-11.01229 -2.45784,-32.60262 -6.06092,-48.48733 -3.29757,-14.53782 -6.762,-29.47434 -14.14213,-42.4264 -6.61781,-11.61419 -22.90057,-17.36733 -26.26397,-30.30458 -4.15401,-15.97831 3.42893,-33.38637 10.10153,-48.48732 9.74545,-22.05521 36.07316,-35.32854 42.4264,-58.58885 5.70298,-20.87958 2.417,-44.7348 -6.06091,-64.64976 -10.09963,-23.72446 -37.35896,-36.40856 -50.50763,-58.58885 -5.86822,-9.89901 -1.35228,-28.26986 -12.12183,-32.32488 -20.01942,-7.53784 -35.19488,29.43116 -56.56854,30.30457 -16.87558,0.6896 -31.25908,-12.85598 -46.46702,-20.20305 -10.30846,-4.98009 -23.97562,-6.62252 -30.30457,-16.16244 -8.22418,-12.3967 -4.23734,-29.57135 -4.04061,-44.44671 0.30488,-23.05268 -0.1848,-47.16847 8.08122,-68.69037 7.10135,-18.48949 33.02129,-28.7253 34.34518,-48.48732 1.06712,-15.92911 -21.09451,-26.50156 -22.22335,-42.42641 -1.56631,-22.09637 7.86678,-45.75961 22.22335,-62.62946 15.43093,-18.13229 40.39197,-25.8371 62.62946,-34.34519 19.37599,-7.41327 39.97149,-12.02729 60.60915,-14.14213 26.80544,-2.74689 58.5503,17.20202 80.81221,2.0203 19.53657,-13.32315 24.69416,-43.027292 24.24366,-66.670064 -0.7481,-39.260546 -44.44671,-109.096475 -44.44671,-109.096475"
       id="path5329"
       inkscape:connector-curvature="0"
       sodipodi:nodetypes="csssssssssssssssssssssssssssc" />
    <path
       style="fill:none;fill-rule:evenodd;stroke:#6e3d1e;stroke-width:8;stroke-linecap:round;stroke-linejoin:miter;stroke-miterlimit:4;stroke-dasharray:none;stroke-opacity:1"
       d="m 220.21108,905.91203 c 0,0 -36.49546,-52.57598 -62.64037,-69.9353 -11.8491,-7.86739 -32.28444,-2.38644 -40.41316,-13.98706 -17.267071,-24.64211 -7.7073,-61.52239 2.02066,-89.91682 6.95971,-20.31435 31.39077,-31.65171 38.3925,-51.95194 8.26512,-23.96323 -9.79765,-53.46962 2.02065,-75.92976 10.44643,-19.85297 33.40966,-31.99334 54.55776,-39.96303 13.90382,-5.23968 29.96336,-0.65748 44.45446,-3.99631 18.27353,-4.21033 38.47316,-7.69988 52.5371,-19.98151 24.61967,-21.49966 46.47513,-85.92052 46.47513,-85.92052"
       id="path5331"
       inkscape:connector-curvature="0"
       sodipodi:nodetypes="cssssssssc" />
    <path
       style="fill:none;fill-rule:evenodd;stroke:#6e3d1e;stroke-width:8;stroke-linecap:round;stroke-linejoin:miter;stroke-miterlimit:4;stroke-dasharray:none;stroke-opacity:1"
       d="m 697.00526,484.65643 c 0,0 20.35163,-30.24716 36.36549,-36.36549 22.68194,-8.66596 64.39722,4.04061 64.39722,4.04061"
       id="path5333"
       inkscape:connector-curvature="0"
       sodipodi:nodetypes="csc" />
    <path
       style="fill:none;fill-rule:evenodd;stroke:#6e3d1e;stroke-width:8;stroke-linecap:round;stroke-linejoin:miter;stroke-miterlimit:4;stroke-dasharray:none;stroke-opacity:1"
       d="m 915.19821,590.21737 c 0,0 19.91619,-10.81557 36.36549,-14.64721 27.57802,-6.42392 58.8541,7.17899 84.8528,-4.04061 24.0509,-10.37901 56.5686,-54.54824 56.5686,-54.54824"
       id="path5335"
       inkscape:connector-curvature="0"
       sodipodi:nodetypes="cssc" />
    <path
       style="fill:none;fill-rule:evenodd;stroke:#6e3d1e;stroke-width:8;stroke-linecap:round;stroke-linejoin:miter;stroke-miterlimit:4;stroke-dasharray:none;stroke-opacity:1"
       d="m -339.45419,979.67366 c 0,0 54.39996,-21.54343 82.98062,-26.29381 29.91001,-4.97134 61.02765,3.27882 90.88352,-2.0226 12.31177,-2.18616 23.07183,-11.79933 35.56312,-12.13562 19.80524,-0.53318 37.499312,15.38466 57.296137,16.18082 38.202006,1.53636 74.8582608,-16.10987 112.616542,-22.24861 41.951156,-6.82041 84.884481,-7.20509 126.446641,-16.18081 13.45535,-2.9058 25.7742,-11.57009 39.51458,-12.13561 18.84353,-0.77555 55.3204,12.13561 55.3204,12.13561"
       id="path5337"
       inkscape:connector-curvature="0"
       sodipodi:nodetypes="csssssssc" />
    <path
       style="fill:none;fill-rule:evenodd;stroke:#6e3d1e;stroke-width:8;stroke-linecap:round;stroke-linejoin:miter;stroke-miterlimit:4;stroke-dasharray:none;stroke-opacity:1"
       d="m 399.51533,1042.6395 c 0,0 12.05372,-33.1788 24.74874,-48.86619 16.60855,-20.52335 42.81712,-31.03673 62.62946,-48.48732 10.72026,-9.44234 16.71458,-25.90076 30.30457,-30.30458 16.21967,-5.25597 48.9924,8.08122 48.9924,8.08122"
       id="path5339"
       inkscape:connector-curvature="0"
       sodipodi:nodetypes="csssc" />
    <path
       style="fill:none;fill-rule:evenodd;stroke:#6e3d1e;stroke-width:8;stroke-linecap:round;stroke-linejoin:miter;stroke-miterlimit:4;stroke-dasharray:none;stroke-opacity:1"
       d="m 600.03061,838.20982 c 0,0 34.81767,-7.65811 52.52793,-8.08122 25.72458,-0.61458 51.03991,7.9731 76.7716,8.08122 20.97383,0.0881 41.72734,-7.79606 62.62946,-6.06091 28.4893,2.36498 75.50889,19.44543 75.50889,19.44543"
       id="path5341"
       inkscape:connector-curvature="0"
       sodipodi:nodetypes="csssc" />
    <path
       style="fill:none;fill-rule:evenodd;stroke:#6e3d1e;stroke-width:8;stroke-linecap:round;stroke-linejoin:miter;stroke-miterlimit:4;stroke-dasharray:none;stroke-opacity:1"
       d="m 31.130901,545.19905 c 0,0 -27.1627312,-26.77624 -45.273037,-38.31926 -26.696938,-17.0159 -56.891582,-28.21844 -86.873114,-38.3858 -21.65571,-7.3439 -46.6641,-27.2378 -66.67007,-16.16244 -27.94707,15.47157 -3.65624,73.29912 -30.30458,90.91373 -20.85468,13.78499 -52.06113,4.43193 -74.75129,-6.06092 -27.66164,-12.79186 -64.64976,-64.64976 -64.64976,-64.64976"
       id="path5343"
       inkscape:connector-curvature="0"
       sodipodi:nodetypes="csssssc" />
    <path
       style="fill:none;fill-rule:evenodd;stroke:#6e3d1e;stroke-width:8;stroke-linecap:round;stroke-linejoin:miter;stroke-miterlimit:4;stroke-dasharray:none;stroke-opacity:1"
       d="m 125.14688,300.92071 c 0,0 55.63857,-41.73997 89.00546,-36.47753 30.16283,4.75711 47.40543,38.71445 68.69037,60.60915 21.99769,22.62786 60.60916,72.73098 60.60916,72.73098"
       id="path5345"
       inkscape:connector-curvature="0"
       sodipodi:nodetypes="cssc" />
    <path
       style="fill:none;fill-rule:evenodd;stroke:#6e3d1e;stroke-width:8;stroke-linecap:round;stroke-linejoin:miter;stroke-miterlimit:4;stroke-dasharray:none;stroke-opacity:1"
       d="m 655.33646,300.55613 c 0,0 49.07905,-25.53733 65.91246,-50.25509 16.82487,-24.70522 22.22335,-86.87312 22.22335,-86.87312"
       id="path5347"
       inkscape:connector-curvature="0"
       sodipodi:nodetypes="csc" />
    <path
       style="fill:none;fill-rule:evenodd;stroke:#6e3d1e;stroke-width:8;stroke-linecap:round;stroke-linejoin:miter;stroke-miterlimit:4;stroke-dasharray:none;stroke-opacity:1"
       d="m 449.51788,144.74009 c 0,0 42.77075,7.59032 55.55839,20.70814 12.20406,12.51918 14.08307,33.02433 14.14214,50.50762 0.0519,15.35659 -11.61675,39.39595 -11.61675,39.39595"
       id="path5349"
       inkscape:connector-curvature="0"
       sodipodi:nodetypes="cssc" />
    <path
       style="fill:none;fill-rule:evenodd;stroke:#6e3d1e;stroke-width:8;stroke-linecap:round;stroke-linejoin:miter;stroke-miterlimit:4;stroke-dasharray:none;stroke-opacity:1"
       d="m 838.93169,251.56373 c 0,0 58.75182,0.35391 84.34774,-19.44544 15.48414,-11.97753 25.52682,-32.96581 26.26396,-52.52793 1.20553,-31.99203 -35.42608,-56.89247 -36.36549,-88.893423 -0.79363,-27.034967 26.26397,-76.771593 26.26397,-76.771593"
       id="path5351"
       inkscape:connector-curvature="0"
       sodipodi:nodetypes="csssc" />
    <path
       style="fill:none;fill-rule:evenodd;stroke:#6e3d1e;stroke-width:8;stroke-linecap:round;stroke-linejoin:miter;stroke-miterlimit:4;stroke-dasharray:none;stroke-opacity:1"
       d="m 842.21469,358.13482 c 0,0 59.88323,-0.64991 79.04443,19.44544 14.21793,14.91108 15.63822,40.30829 12.12183,60.60915 -2.68076,15.47661 -18.90891,25.63273 -24.24366,40.4061 -6.01683,16.66223 -1.66971,36.01356 -8.08122,52.52794 -4.39389,11.31751 -19.95051,26.76904 -19.95051,26.76904"
       id="path5353"
       inkscape:connector-curvature="0"
       sodipodi:nodetypes="cssssc" />
    <path
       style="fill:none;fill-rule:evenodd;stroke:#6e3d1e;stroke-width:8;stroke-linecap:round;stroke-linejoin:miter;stroke-miterlimit:4;stroke-dasharray:none;stroke-opacity:1"
       d="m 622.25397,609.91535 c 0,0 77.41531,45.86847 107.07617,78.79189 15.15232,16.819 38.04366,36.25518 34.34518,58.58885 -3.19825,19.31298 -35.29152,21.08255 -44.44671,38.3858 -8.24298,15.57918 -5.3033,51.0127 -5.3033,51.0127"
       id="path5355"
       inkscape:connector-curvature="0"
       sodipodi:nodetypes="csssc" />
    <path
       style="fill:none;fill-rule:evenodd;stroke:#6e3d1e;stroke-width:8;stroke-linecap:round;stroke-linejoin:miter;stroke-miterlimit:4;stroke-dasharray:none;stroke-opacity:1"
       d="m 657.86185,970.79235 c 0,0 36.60549,29.21875 61.36676,29.04188 20.51439,-0.14652 40.99136,-10.89401 56.56854,-24.24366 14.47208,-12.40259 14.48281,-37.86015 30.30458,-48.48733 16.4512,-11.04996 58.58885,-10.10152 58.58885,-10.10152"
       id="path5357"
       inkscape:connector-curvature="0"
       sodipodi:nodetypes="csssc" />
    <path
       style="fill:none;fill-rule:evenodd;stroke:#6e3d1e;stroke-width:8;stroke-linecap:round;stroke-linejoin:miter;stroke-miterlimit:4;stroke-dasharray:none;stroke-opacity:1"
       d="m 307.08637,872.55501 c 0,0 49.53719,-10.35561 70.71068,0 13.79514,6.74698 16.48594,26.53559 28.28427,36.36549 14.57905,12.14669 33.60281,17.64318 50.50763,26.26396 8.0489,4.10461 24.24366,12.12184 24.24366,12.12184"
       id="path5359"
       inkscape:connector-curvature="0"
       sodipodi:nodetypes="csssc" />
    <path
       style="fill:none;fill-rule:evenodd;stroke:#6e3d1e;stroke-width:8;stroke-linecap:round;stroke-linejoin:miter;stroke-miterlimit:4;stroke-dasharray:none;stroke-opacity:1"
       d="m 523.25902,749.3164 c 0,0 -32.75201,10.34611 -46.46702,20.20305 -22.84381,16.41778 -40.01918,39.88079 -56.56854,62.62946 -11.89175,16.34634 -30.30458,52.52793 -30.30458,52.52793"
       id="path5361"
       inkscape:connector-curvature="0"
       sodipodi:nodetypes="cssc" />
    <path
       style="fill:none;fill-rule:evenodd;stroke:#6e3d1e;stroke-width:8;stroke-linecap:round;stroke-linejoin:miter;stroke-miterlimit:4;stroke-dasharray:none;stroke-opacity:1"
       d="m 150.00766,694.01054 c 0,0 58.67172,-49.48373 94.44926,-51.77031 32.32899,-2.06618 90.91372,34.34518 90.91372,34.34518"
       id="path5363"
       inkscape:connector-curvature="0"
       sodipodi:nodetypes="csc" />
    <path
       style="fill:none;fill-rule:evenodd;stroke:#6e3d1e;stroke-width:8;stroke-linecap:round;stroke-linejoin:miter;stroke-miterlimit:4;stroke-dasharray:none;stroke-opacity:1"
       d="m 333.35034,514.96101 c 0,0 50.52863,4.58219 70.71068,18.18274 15.97241,10.7637 15.50728,42.45347 34.34518,46.46702 34.80275,7.41498 92.93404,-52.52793 92.93404,-52.52793"
       id="path5365"
       inkscape:connector-curvature="0"
       sodipodi:nodetypes="cssc" />
    <path
       style="fill:none;fill-rule:evenodd;stroke:#6e3d1e;stroke-width:8;stroke-linecap:round;stroke-linejoin:miter;stroke-miterlimit:4;stroke-dasharray:none;stroke-opacity:1"
       d="m 438.15366,579.35823 8.33376,46.71956"
       id="path5367"
       inkscape:connector-curvature="0"
       sodipodi:nodetypes="cc" />
    <path
       style="fill:none;fill-rule:evenodd;stroke:#6e3d1e;stroke-width:8;stroke-linecap:round;stroke-linejoin:miter;stroke-miterlimit:4;stroke-dasharray:none;stroke-opacity:1"
       d="m 183.99307,456.49643 c 0,0 -8.85842,45.28473 -0.14531,56.44427 16.90591,21.65269 53.95305,21.92735 80.81221,16.16244 22.65643,-4.86286 39.3099,-24.94322 56.56854,-40.4061 12.78755,-11.45701 35.86042,-34.59773 35.86042,-34.59773"
       id="path5369"
       inkscape:connector-curvature="0"
       sodipodi:nodetypes="csssc" />
    <path
       style="fill:none;fill-rule:evenodd;stroke:#6e3d1e;stroke-width:8;stroke-linecap:round;stroke-linejoin:miter;stroke-miterlimit:4;stroke-dasharray:none;stroke-opacity:1"
       d="m 175.76654,584.03019 6.18719,-73.4886"
       id="path5371"
       inkscape:connector-curvature="0"
       sodipodi:nodetypes="cc" />
    <path
       style="fill:none;fill-rule:evenodd;stroke:#6e3d1e;stroke-width:8;stroke-linecap:round;stroke-linejoin:miter;stroke-miterlimit:4;stroke-dasharray:none;stroke-opacity:1"
       d="m 8.3263245,588.04913 c 0,0 55.4476285,-3.89141 78.5467945,11.76469 12.238683,8.2951 9.011991,31.74848 22.223351,38.3858 15.74959,7.91252 46.99223,-3.38235 46.99223,-3.38235"
       id="path5373"
       inkscape:connector-curvature="0"
       sodipodi:nodetypes="cssc" />
    <path
       style="fill:none;fill-rule:evenodd;stroke:#6e3d1e;stroke-width:8;stroke-linecap:butt;stroke-linejoin:miter;stroke-miterlimit:4;stroke-dasharray:none;stroke-opacity:1"
       d="m 911.42857,470.2193 c 0,0 38.85789,-1.86892 55,7.14286 14.84874,8.28972 16.79014,32.30488 32.14286,39.61915 8.16807,3.89138 18.09527,0 27.14287,0 9.2857,0 27.8571,0 27.8571,0"
       id="path5393"
       inkscape:connector-curvature="0"
       sodipodi:nodetypes="csssc" />
    <path
       style="fill:none;fill-rule:evenodd;stroke:#6e3d1e;stroke-width:8;stroke-linecap:butt;stroke-linejoin:miter;stroke-miterlimit:4;stroke-dasharray:none;stroke-opacity:1"
       d="m 9.1071429,587.54073 c 0,0 -8.16622948,-14.40686 -15.0000001,-18.39286 -3.9644184,-2.31236 -13.5714288,-2.32143 -13.5714288,-2.32143"
       id="path5395"
       inkscape:connector-curvature="0"
       sodipodi:nodetypes="csc" />
    <path
       style="fill:none;fill-rule:evenodd;stroke:#6e3d1e;stroke-width:8;stroke-linecap:butt;stroke-linejoin:miter;stroke-miterlimit:4;stroke-dasharray:none;stroke-opacity:1"
       d="m 141.78571,922.36216 c 0,0 55.88795,24.09268 59.28572,49.64286 2.66,20.0024 -20.27353,35.47628 -34.64286,49.64288 -13.30835,13.1206 -30.89505,21.0376 -46.42857,31.4286 -13.99638,9.3627 -42.142857,27.8571 -42.142857,27.8571"
       id="path5397"
       inkscape:connector-curvature="0"
       sodipodi:nodetypes="csssc" />
    <path
       style="fill:none;fill-rule:evenodd;stroke:#6e3d1e;stroke-width:8;stroke-linecap:butt;stroke-linejoin:miter;stroke-miterlimit:4;stroke-dasharray:none;stroke-opacity:1"
       d="m 474.51916,957.9129 c 0,0 13.01357,18.52993 20.96066,26.5165 10.56194,10.61441 21.0202,22.9424 35.10281,28.0317 16.07428,5.809 36.47971,-7.5639 51.26524,1.0102 13.32544,7.7274 17.52679,25.5526 23.73858,39.6485 4.14562,9.4073 7.35,19.3751 8.83884,29.547 1.15817,7.9127 0,23.9911 0,23.9911"
       id="path5399"
       inkscape:connector-curvature="0"
       sodipodi:nodetypes="csssssc" />
    <path
       style="fill:none;fill-rule:evenodd;stroke:#6e3d1e;stroke-width:8;stroke-linecap:butt;stroke-linejoin:miter;stroke-miterlimit:4;stroke-dasharray:none;stroke-opacity:1"
       d="m 869.99388,982.15656 c 0,0 27.55859,4.38175 40.15356,3.03046 7.51988,-0.8068 14.92292,-3.24597 21.71828,-6.566 10.74441,-5.24943 19.05546,-14.53054 29.29443,-20.70812 9.5414,-5.75671 18.96279,-12.55541 29.7995,-15.15229 11.13315,-2.66793 22.89675,0 34.34515,0 8.4179,0 18.0269,-4.3166 25.2538,0 4.2682,2.54935 7.0711,13.13198 7.0711,13.13198"
       id="path5401"
       inkscape:connector-curvature="0"
       sodipodi:nodetypes="cssssssc" />
    <path
       style="fill:none;fill-rule:evenodd;stroke:#6e3d1e;stroke-width:8;stroke-linecap:butt;stroke-linejoin:miter;stroke-miterlimit:4;stroke-dasharray:none;stroke-opacity:1"
       d="m 931.86572,978.79073 c 0,0 8.3189,3.67943 11.61643,6.69643 5.39125,4.9326 8.75223,11.72767 12.58928,17.94644 2.76894,4.4877 4.9763,9.2986 7.5,13.9286 3.77417,6.9242 4.80816,16.4296 11.42857,20.7143 8.52388,5.5166 20.45075,4.7256 30.3571,2.5 7.1108,-1.5976 12.4939,-7.5207 18.9286,-10.9427 5.846,-3.1089 11.6848,-6.3038 17.8572,-8.7002 5.0917,-1.9768 15.7142,-4.6429 15.7142,-4.6429"
       id="path5403"
       inkscape:connector-curvature="0"
       sodipodi:nodetypes="csssssssc" />
    <path
       style="fill:none;fill-rule:evenodd;stroke:#6e3d1e;stroke-width:8;stroke-linecap:butt;stroke-linejoin:miter;stroke-miterlimit:4;stroke-dasharray:none;stroke-opacity:1"
       d="m 965.35714,1021.2907 c 0,0 -11.70015,2.478 -17.5,3.9286 -5.3646,1.3418 -12.15734,0.4296 -15.99142,4.4145 -3.86972,4.0219 -4.55739,10.7662 -3.83,16.2998 0.3521,2.6786 2.54473,4.7666 3.83,7.1429 2.16127,3.9959 5.03985,7.6717 6.52714,11.9643 1.28466,3.7078 1.96428,11.6071 1.96428,11.6071"
       id="path5405"
       inkscape:connector-curvature="0"
       sodipodi:nodetypes="csssssc" />
    <path
       style="fill:none;fill-rule:evenodd;stroke:#6e3d1e;stroke-width:8;stroke-linecap:butt;stroke-linejoin:miter;stroke-miterlimit:4;stroke-dasharray:none;stroke-opacity:1"
       d="m 742.9672,164.94315 c 0,0 10.04552,-23.67186 18.68782,-32.82996 10.19196,-10.80025 24.37494,-17.06707 37.37564,-24.24366 10.88116,-6.00657 28.36163,-4.50099 33.84011,-15.657365 C 842.53802,72.525791 824.93055,48.9487 818.22356,28.067478 814.76213,17.290818 807.9515,7.7044063 805.09158,-3.24725 c -2.99709,-11.476951 -4.04061,-35.35534 -4.04061,-35.35534"
       id="path5409"
       inkscape:connector-curvature="0"
       sodipodi:nodetypes="csssssc" />
  </g>
</svg>
